<?xml version="1.0" ?><!DOCTYPE svg  PUBLIC '-//W3C//DTD SVG 1.1//EN'  'http://www.w3.org/Graphics/SVG/1.1/DTD/svg11.dtd'><svg height="80px" id="Layer_1" style="enable-background:new 0 0 80 80;" version="1.1" viewBox="0 0 80 80" width="80px" xml:space="preserve" xmlns="http://www.w3.org/2000/svg" xmlns:xlink="http://www.w3.org/1999/xlink"><style type="text/css">
	.st0{fill:#1C2B36;}
</style><path class="st0" d="M59.8,66.2l-1.6-3.4c-2.7-7.8-7.4-18.2-7.8-26.8c-0.3-8,3.6-7.4,3.3-15.1c-1.3-1.3-3-3.2-3-4.8c0-2,0-8,0-8  h-1.4v8.7c0,0-6,0.2-8.8,4.5c-0.1,0.1-0.4,0.2-0.7,0.3c-0.3-0.1-0.6-0.2-0.7-0.3c-2.8-4.3-8.8-4.5-8.8-4.5V8.1h-1.4c0,0,0,6,0,8  c0,1.6-1.7,3.5-3,4.8c-0.3,7.7,3.6,7.2,3.3,15.1c-0.3,9.3-5.8,20.7-8.4,28.6c0,0,0,0,0,0l-0.7,1.5l2.3,1.1l-0.6,1.5l3.1,1.4l1.5-3.4  c0.2,0.1,0.4,0.1,0.6,0.2l-0.4,1l2,0.8l-0.4,1.2l3.2,1.1l1-3c0,0,0,0,0,0l-0.4,3.7l2.9,0.3l0.2-1.6l2.8,0.3l0.1-0.5l0.9,0l0,1.3  l3.1-0.1l-0.1-1.4l0,0.4l2.7-0.3l0.1,1.1l2.9-0.3l-0.3-3c0.1,0,0.2,0,0.3,0l0.9,3.7l3.2-1.1l-0.5-1.6l2.5-1l-0.5-1.2  c0.2-0.1,0.5-0.1,0.7-0.2l1.3,2.8l3-1.4L58.1,67L59.8,66.2z"/></svg>